PathFileType	4	(X/Y/Z)	Running2.trc
DataRate	CameraRate	NumFrames	NumMarkers	Units	OrigDataRate	OrigDataStartFrame	OrigNumFrames
100	100	53	2	mm	100	2251	6000
Frame#	Time	mal_lat_left			mal_lat_right		
		X	Y	Z	X	Y	Z	
2251	11.25	1084.20581054688	381.83447265625	88.9506988525391	577.035583496094	167.638320922852	309.248382568359
2252	11.255	1072.68005371094	380.782257080078	89.0916748046875	581.203369140625	167.612548828125	312.358337402344
2253	11.26	1062.41979980469	379.787261962891	89.9440231323242	586.081909179688	167.724914550781	315.129547119141
2254	11.265	1052.65185546875	378.985046386719	90.9957733154297	591.38232421875	168.059982299805	317.596221923828
2255	11.27	1041.86889648438	378.180297851562	92.3035125732422	597.190063476562	168.748825073242	319.774749755859
2256	11.275	1030.62329101562	377.658172607422	93.5853042602539	604.351745605469	168.750549316406	321.672088623047
2257	11.28	1019.14129638672	377.605682373047	94.4958572387695	611.533447265625	169.421051025391	323.178131103516
2258	11.285	1007.98303222656	378.085571289062	95.1910018920898	619.219848632812	170.180160522461	324.3525390625
2259	11.29	996.870666503906	378.924285888672	95.9738388061523	627.261840820312	171.026947021484	325.064910888672
2260	11.295	985.505737304688	379.854461669922	96.4454345703125	635.625732421875	171.886428833008	325.340942382812
2261	11.3	974.130737304688	380.507019042969	96.7346420288086	644.265808105469	172.755798339844	325.250183105469
2262	11.305	962.576599121094	381.014495849609	97.0617904663086	653.133056640625	173.598022460938	324.66796875
2263	11.31	950.856323242188	381.377960205078	97.4599151611328	662.245300292969	174.498840332031	323.612121582031
2264	11.315	938.985290527344	381.462738037109	97.9443588256836	671.436401367188	175.523864746094	322.166900634766
2265	11.32	927.080139160156	381.508666992188	98.5696105957031	680.790344238281	176.520919799805	320.351715087891
2266	11.325	915.166748046875	381.527069091797	99.2296142578125	690.314758300781	177.681549072266	318.057434082031
2267	11.33	903.195617675781	381.506195068359	100.010925292969	699.95166015625	178.820693969727	315.331237792969
2268	11.335	891.256164550781	381.563537597656	100.887062072754	709.651428222656	180.042846679688	312.232208251953
2269	11.34	879.315673828125	381.689361572266	101.890121459961	719.409362792969	181.380157470703	308.736114501953
2270	11.345	867.469848632812	381.819274902344	103.010482788086	729.238647460938	182.687042236328	304.860046386719
2271	11.35	855.708740234375	382.075988769531	104.309600830078	739.067687988281	184.049072265625	300.620300292969
2272	11.355	844.016052246094	382.413391113281	105.768287658691	748.948120117188	185.553970336914	296.010345458984
2273	11.36	832.524780273438	382.763275146484	107.487121582031	758.925476074219	187.119415283203	291.073852539062
2274	11.365	821.300170898438	383.139373779297	109.478553771973	769.015380859375	188.663848876953	285.779449462891
2275	11.37	810.215637207031	383.590637207031	111.822898864746	779.248291015625	190.326324462891	280.208648681641
2276	11.375	799.410034179688	384.114196777344	114.476257324219	789.610290527344	191.96044921875	274.309600830078
2277	11.38	788.885925292969	384.686737060547	117.37572479248	800.167053222656	193.59309387207	268.167907714844
2278	11.385	778.629089355469	385.28857421875	120.573913574219	810.713439941406	194.898803710938	261.795989990234
2279	11.39	768.687316894531	386.000457763672	123.976852416992	821.831237792969	196.428070068359	255.127410888672
2280	11.395	759.051574707031	386.848541259766	127.633117675781	833.59326171875	198.237686157227	248.071365356445
2281	11.4	749.713806152344	387.676788330078	131.413436889648	845.430541992188	199.593002319336	240.895431518555
2282	11.405	740.782287597656	388.639526367188	135.334030151367	857.465515136719	200.946075439453	233.604736328125
2283	11.41	732.140869140625	389.679473876953	139.50634765625	869.791320800781	202.187194824219	226.101776123047
2284	11.415	723.906799316406	390.789245605469	143.72737121582	882.404968261719	203.283126831055	218.560119628906
2285	11.42	716.033874511719	391.966888427734	148.047424316406	895.248474121094	204.313873291016	210.889877319336
2286	11.425	708.4794921875	393.193237304688	152.486724853516	908.3916015625	205.251617431641	203.126022338867
2287	11.43	701.331298828125	394.425537109375	156.984390258789	921.81201171875	206.063491821289	195.317565917969
2288	11.435	694.527709960938	395.688354492188	161.60578918457	935.458862304688	206.731353759766	187.676422119141
2289	11.44	688.02197265625	397.011413574219	166.343643188477	949.233276367188	207.344635009766	180.069305419922
2290	11.445	681.884399414062	398.354736328125	171.220916748047	963.265319824219	207.766372680664	172.547897338867
2291	11.45	676.031860351562	399.633392333984	176.162551879883	977.452819824219	208.058227539062	165.226684570312
2292	11.455	670.523132324219	400.980102539062	181.18913269043	991.63330078125	208.275665283203	158.035705566406
2293	11.46	665.429077148438	402.363433837891	186.306854248047	1005.93182373047	208.320297241211	151.107574462891
2294	11.465	660.571594238281	403.777038574219	191.365371704102	1020.18804931641	208.219024658203	144.585861206055
2295	11.47	655.906677246094	405.157928466797	196.366744995117	1034.28942871094	208.024810791016	138.546325683594
2296	11.475	651.482055664062	406.509552001953	201.333267211914	1048.26391601562	207.711883544922	132.850555419922
2297	11.48	647.086242675781	407.868560791016	206.238952636719	1061.90979003906	207.256896972656	127.804061889648
2298	11.485	642.874328613281	409.245086669922	211.056640625	1075.18542480469	206.737213134766	123.227882385254
2299	11.49	638.780212402344	410.460540771484	215.752014160156	1087.74633789062	206.014877319336	119.342025756836
2300	11.495	634.37158203125	411.742401123047	220.626205444336	1099.66613769531	205.320388793945	116.035789489746
2301	11.5	629.915283203125	412.938293457031	225.702499389648	1110.69372558594	204.647476196289	113.239715576172
2302	11.505	625.480651855469	414.048919677734	230.881042480469	1120.54724121094	204.09162902832	111.071266174316
2303	11.51	621.18212890625	415.129272460938	236.237670898438	1129.28527832031	203.906387329102	109.324111938477
